<svg viewBox="0,0,975,720" width="975" height="720" style="background: rgb(255, 255, 255); width: 100%; height: auto;" xmlns="http://www.w3.org/2000/svg" xmlns:xlink="http://www.w3.org/1999/xlink"><g><rect x="1" y="14.999999999999659" height="2.045795420457921" width="13" fill="rgb(185, 185, 185)"><title>From : Bridging
0.31</title></rect><rect x="961" y="5.000000000000512" height="25.20947905209482" width="13" fill="rgb(37, 136, 79)"><title>To : Bridging
3.82</title></rect><rect x="961" y="40.20947905209533" height="295.1224877512249" width="13" fill="rgb(128, 181, 168)"><title>To : Developing
44.72</title></rect><rect x="961" y="345.33196680332026" height="164.2575742425754" width="13" fill="rgb(85, 162, 137)"><title>To : Expanding
24.89</title></rect><rect x="1" y="27.04579542045758" height="263.313668633137" width="13" fill="rgb(185, 185, 185)"><title>From : Developing
39.9</title></rect><rect x="961" y="519.5895410458957" height="125.91540845915415" width="13" fill="rgb(171, 197, 192)"><title>To : Emerging
19.08</title></rect><rect x="961" y="655.5049495050498" height="47.977202279771745" width="13" fill="rgb(198, 207, 210)"><title>To : Entering
7.27</title></rect><rect x="961" y="713.4821517848216" height="1.5178482151784465" width="13" fill="rgb(0, 91, 37)"><title>To : Reaching
0.23</title></rect><rect x="1" y="300.3594640535946" height="163.06969303069695" width="13" fill="rgb(185, 185, 185)"><title>From : Emerging
24.71</title></rect><rect x="1" y="473.42915708429155" height="144.8555144485549" width="13" fill="rgb(185, 185, 185)"><title>From : Entering
21.95</title></rect><rect x="1" y="628.2846715328465" height="86.71532846715354" width="13" fill="rgb(185, 185, 185)"><title>From : Expanding
13.14</title></rect></g><g fill="none"><g stroke="rgb(44, 162, 95)" style="mix-blend-mode: multiply;"><path d="M15,15.560943905609099C487.5,15.560943905609099,487.5,5.5609439056099506,960,5.5609439056099506" stroke-width="1.1218878112188784"/><title>From : Bridging → To : Bridging
0.17</title></g><g stroke="rgb(153, 216, 201)" style="mix-blend-mode: multiply;"><path d="M15,16.22087791220844C487.5,16.22087791220844,487.5,40.308469153085234,960,40.308469153085234" stroke-width="1"/><title>From : Bridging → To : Developing
0.03</title></g><g stroke="rgb(102, 194, 164)" style="mix-blend-mode: multiply;"><path d="M15,16.68283171682798C487.5,16.68283171682798,487.5,345.6949305069499,960,345.6949305069499" stroke-width="1"/><title>From : Bridging → To : Expanding
0.11</title></g><g stroke="rgb(44, 162, 95)" style="mix-blend-mode: multiply;"><path d="M15,31.467353264673157C487.5,31.467353264673157,487.5,10.543445655434969,960,10.543445655434969" stroke-width="8.843115688431158"/><title>From : Developing → To : Bridging
1.34</title></g><g stroke="rgb(153, 216, 201)" style="mix-blend-mode: multiply;"><path d="M15,106.40285971402824C487.5,106.40285971402824,487.5,110.92140785921464,960,110.92140785921464" stroke-width="141.027897210279"/><title>From : Developing → To : Developing
21.37</title></g><g stroke="rgb(204, 236, 230)" style="mix-blend-mode: multiply;"><path d="M15,279.4045595440453C487.5,279.4045595440453,487.5,528.6306369363066,960,528.6306369363066" stroke-width="18.082191780821923"/><title>From : Developing → To : Emerging
2.74</title></g><g stroke="rgb(237, 248, 251)" style="mix-blend-mode: multiply;"><path d="M15,289.20457954204545C487.5,289.20457954204545,487.5,656.263873612639,960,656.263873612639" stroke-width="1.5178482151784825"/><title>From : Developing → To : Entering
0.23</title></g><g stroke="rgb(102, 194, 164)" style="mix-blend-mode: multiply;"><path d="M15,223.64013598640102C487.5,223.64013598640102,487.5,392.7812218778128,960,392.7812218778128" stroke-width="93.44665533446657"/><title>From : Developing → To : Expanding
14.16</title></g><g stroke="rgb(0, 109, 44)" style="mix-blend-mode: multiply;"><path d="M15,290.16148385161455C487.5,290.16148385161455,487.5,713.6801319868014,960,713.6801319868014" stroke-width="1"/><title>From : Developing → To : Reaching
0.06</title></g><g stroke="rgb(44, 162, 95)" style="mix-blend-mode: multiply;"><path d="M15,300.82141785821415C487.5,300.82141785821415,487.5,15.426957304270086,960,15.426957304270086" stroke-width="1"/><title>From : Emerging → To : Bridging
0.14</title></g><g stroke="rgb(153, 216, 201)" style="mix-blend-mode: multiply;"><path d="M15,345.3999600039995C487.5,345.3999600039995,487.5,225.55194480552,960,225.55194480552" stroke-width="88.23317668233177"/><title>From : Emerging → To : Developing
13.37</title></g><g stroke="rgb(204, 236, 230)" style="mix-blend-mode: multiply;"><path d="M15,430.69643035696424C487.5,430.69643035696424,487.5,562.8812118788125,960,562.8812118788125" stroke-width="50.418958104189585"/><title>From : Emerging → To : Emerging
7.64</title></g><g stroke="rgb(237, 248, 251)" style="mix-blend-mode: multiply;"><path d="M15,459.66753324667525C487.5,459.66753324667525,487.5,660.7844215578444,960,660.7844215578444" stroke-width="7.5232476752324775"/><title>From : Emerging → To : Entering
1.14</title></g><g stroke="rgb(102, 194, 164)" style="mix-blend-mode: multiply;"><path d="M15,397.50174982501744C487.5,397.50174982501744,487.5,447.48975102489817,960,447.48975102489817" stroke-width="15.970402959704032"/><title>From : Emerging → To : Expanding
2.42</title></g><g stroke="rgb(44, 162, 95)" style="mix-blend-mode: multiply;"><path d="M15,473.52814718528145C487.5,473.52814718528145,487.5,15.987901209879526,960,15.987901209879526" stroke-width="1"/><title>From : Entering → To : Bridging
0.03</title></g><g stroke="rgb(153, 216, 201)" style="mix-blend-mode: multiply;"><path d="M15,496.39486051394863C487.5,496.39486051394863,487.5,292.4362563743631,960,292.4362563743631" stroke-width="45.535446455354474"/><title>From : Entering → To : Developing
6.9</title></g><g stroke="rgb(204, 236, 230)" style="mix-blend-mode: multiply;"><path d="M15,551.4993500649936C487.5,551.4993500649936,487.5,615.9399060093994,960,615.9399060093994" stroke-width="55.69843015698431"/><title>From : Entering → To : Emerging
8.44</title></g><g stroke="rgb(237, 248, 251)" style="mix-blend-mode: multiply;"><path d="M15,598.8166183381662C487.5,598.8166183381662,487.5,684.0140985901413,960,684.0140985901413" stroke-width="38.93610638936107"/><title>From : Entering → To : Entering
5.9</title></g><g stroke="rgb(102, 194, 164)" style="mix-blend-mode: multiply;"><path d="M15,521.4063593640636C487.5,521.4063593640636,487.5,457.7187281271879,960,457.7187281271879" stroke-width="4.4875512448755135"/><title>From : Entering → To : Expanding
0.68</title></g><g stroke="rgb(44, 162, 95)" style="mix-blend-mode: multiply;"><path d="M15,635.3459654034594C487.5,635.3459654034594,487.5,23.148185181482365,960,23.148185181482365" stroke-width="14.12258774122588"/><title>From : Expanding → To : Bridging
2.14</title></g><g stroke="rgb(153, 216, 201)" style="mix-blend-mode: multiply;"><path d="M15,652.4712528747123C487.5,652.4712528747123,487.5,325.2679732026803,960,325.2679732026803" stroke-width="20.127987201279876"/><title>From : Expanding → To : Developing
3.05</title></g><g stroke="rgb(204, 236, 230)" style="mix-blend-mode: multiply;"><path d="M15,713.0201979802017C487.5,713.0201979802017,487.5,644.6470352964706,960,644.6470352964706" stroke-width="1.7158284171582845"/><title>From : Expanding → To : Emerging
0.26</title></g><g stroke="rgb(102, 194, 164)" style="mix-blend-mode: multiply;"><path d="M15,687.3487651234874C487.5,687.3487651234874,487.5,484.77602239776087,960,484.77602239776087" stroke-width="49.62703729627038"/><title>From : Expanding → To : Expanding
7.52</title></g><g stroke="rgb(0, 109, 44)" style="mix-blend-mode: multiply;"><path d="M15,714.4390560943903C487.5,714.4390560943903,487.5,714.4390560943906,960,714.4390560943906" stroke-width="1.1218878112188784"/><title>From : Expanding → To : Reaching
0.17</title></g></g><g style="font: 10px sans-serif;"><text x="21" y="16.02289771022862" dy="0.35em" text-anchor="start">From : Bridging<tspan fill-opacity="0.7"> 0.31</tspan></text><text x="954" y="17.604739526047922" dy="0.35em" text-anchor="end">To : Bridging<tspan fill-opacity="0.7"> 3.82</tspan></text><text x="954" y="187.7707229277078" dy="0.35em" text-anchor="end">To : Developing<tspan fill-opacity="0.7"> 44.72</tspan></text><text x="954" y="427.46075392460796" dy="0.35em" text-anchor="end">To : Expanding<tspan fill-opacity="0.7"> 24.89</tspan></text><text x="21" y="158.7026297370261" dy="0.35em" text-anchor="start">From : Developing<tspan fill-opacity="0.7"> 39.9</tspan></text><text x="954" y="582.5472452754727" dy="0.35em" text-anchor="end">To : Emerging<tspan fill-opacity="0.7"> 19.08</tspan></text><text x="954" y="679.4935506449357" dy="0.35em" text-anchor="end">To : Entering<tspan fill-opacity="0.7"> 7.27</tspan></text><text x="954" y="714.2410758924108" dy="0.35em" text-anchor="end">To : Reaching<tspan fill-opacity="0.7"> 0.23</tspan></text><text x="21" y="381.89431056894307" dy="0.35em" text-anchor="start">From : Emerging<tspan fill-opacity="0.7"> 24.71</tspan></text><text x="21" y="545.856914308569" dy="0.35em" text-anchor="start">From : Entering<tspan fill-opacity="0.7"> 21.95</tspan></text><text x="21" y="671.6423357664232" dy="0.35em" text-anchor="start">From : Expanding<tspan fill-opacity="0.7"> 13.14</tspan></text></g></svg>