<svg viewBox="0,0,975,720" width="975" height="720" style="background: rgb(255, 255, 255); width: 100%; height: auto;" xmlns="http://www.w3.org/2000/svg" xmlns:xlink="http://www.w3.org/1999/xlink"><g><rect x="1" y="4.999999999999773" height="9.635999999999967" width="13" fill="rgb(185, 185, 185)"><title>From : Bridging
1.46</title></rect><rect x="961" y="5.000000000000426" height="144.73800000000008" width="13" fill="rgb(37, 136, 79)"><title>To : Bridging
21.93</title></rect><rect x="961" y="159.7380000000005" height="176.74799999999982" width="13" fill="rgb(128, 181, 168)"><title>To : Developing
26.78</title></rect><rect x="961" y="346.48600000000033" height="201.36599999999999" width="13" fill="rgb(85, 162, 137)"><title>To : Expanding
30.51</title></rect><rect x="961" y="557.8520000000003" height="38.67599999999993" width="13" fill="rgb(0, 91, 37)"><title>To : Reaching
5.86</title></rect><rect x="1" y="24.63599999999974" height="229.94400000000007" width="13" fill="rgb(185, 185, 185)"><title>From : Developing
34.84</title></rect><rect x="961" y="606.5280000000002" height="79.26599999999985" width="13" fill="rgb(171, 197, 192)"><title>To : Emerging
12.01</title></rect><rect x="961" y="695.7940000000001" height="19.205999999999904" width="13" fill="rgb(198, 207, 210)"><title>To : Entering
2.91</title></rect><rect x="1" y="264.5799999999998" height="92.20200000000011" width="13" fill="rgb(185, 185, 185)"><title>From : Emerging
13.97</title></rect><rect x="1" y="366.7819999999999" height="110.35199999999975" width="13" fill="rgb(185, 185, 185)"><title>From : Entering
16.72</title></rect><rect x="1" y="487.1339999999997" height="216.94200000000035" width="13" fill="rgb(185, 185, 185)"><title>From : Expanding
32.87</title></rect><rect x="1" y="714.076" height="0.9239999999999782" width="13" fill="rgb(0, 91, 37)"><title>From : Reaching
0.14</title></rect></g><g fill="none"><g stroke="rgb(44, 162, 95)" style="mix-blend-mode: multiply;"><path d="M15,6.781999999999773C487.5,6.781999999999773,487.5,6.782000000000426,960,6.782000000000426" stroke-width="3.5639999999999996"/><title>From : Bridging → To : Bridging
0.54</title></g><g stroke="rgb(153, 216, 201)" style="mix-blend-mode: multiply;"><path d="M15,8.794999999999773C487.5,8.794999999999773,487.5,159.9690000000005,960,159.9690000000005" stroke-width="1"/><title>From : Bridging → To : Developing
0.07</title></g><g stroke="rgb(102, 194, 164)" style="mix-blend-mode: multiply;"><path d="M15,9.685999999999773C487.5,9.685999999999773,487.5,347.14600000000036,960,347.14600000000036" stroke-width="1.3199999999999998"/><title>From : Bridging → To : Expanding
0.2</title></g><g stroke="rgb(0, 109, 44)" style="mix-blend-mode: multiply;"><path d="M15,12.490999999999772C487.5,12.490999999999772,487.5,559.9970000000003,960,559.9970000000003" stroke-width="4.289999999999999"/><title>From : Bridging → To : Reaching
0.65</title></g><g stroke="rgb(44, 162, 95)" style="mix-blend-mode: multiply;"><path d="M15,46.67999999999974C487.5,46.67999999999974,487.5,30.60800000000042,960,30.60800000000042" stroke-width="44.08799999999999"/><title>From : Developing → To : Bridging
6.68</title></g><g stroke="rgb(153, 216, 201)" style="mix-blend-mode: multiply;"><path d="M15,105.35399999999973C487.5,105.35399999999973,487.5,196.8300000000005,960,196.8300000000005" stroke-width="73.25999999999999"/><title>From : Developing → To : Developing
11.1</title></g><g stroke="rgb(204, 236, 230)" style="mix-blend-mode: multiply;"><path d="M15,247.4849999999997C487.5,247.4849999999997,487.5,612.6990000000003,960,612.6990000000003" stroke-width="12.341999999999999"/><title>From : Developing → To : Emerging
1.87</title></g><g stroke="rgb(237, 248, 251)" style="mix-blend-mode: multiply;"><path d="M15,254.1179999999997C487.5,254.1179999999997,487.5,696.2560000000001,960,696.2560000000001" stroke-width="1"/><title>From : Developing → To : Entering
0.14</title></g><g stroke="rgb(102, 194, 164)" style="mix-blend-mode: multiply;"><path d="M15,188.51399999999973C487.5,188.51399999999973,487.5,394.3360000000003,960,394.3360000000003" stroke-width="93.05999999999997"/><title>From : Developing → To : Expanding
14.1</title></g><g stroke="rgb(0, 109, 44)" style="mix-blend-mode: multiply;"><path d="M15,238.1789999999997C487.5,238.1789999999997,487.5,565.2770000000003,960,565.2770000000003" stroke-width="6.269999999999999"/><title>From : Developing → To : Reaching
0.95</title></g><g stroke="rgb(44, 162, 95)" style="mix-blend-mode: multiply;"><path d="M15,267.28599999999983C487.5,267.28599999999983,487.5,55.358000000000416,960,55.358000000000416" stroke-width="5.411999999999999"/><title>From : Emerging → To : Bridging
0.82</title></g><g stroke="rgb(153, 216, 201)" style="mix-blend-mode: multiply;"><path d="M15,288.9999999999998C487.5,288.9999999999998,487.5,252.46800000000047,960,252.46800000000047" stroke-width="38.01599999999999"/><title>From : Emerging → To : Developing
5.76</title></g><g stroke="rgb(204, 236, 230)" style="mix-blend-mode: multiply;"><path d="M15,339.7869999999998C487.5,339.7869999999998,487.5,629.9910000000002,960,629.9910000000002" stroke-width="22.241999999999997"/><title>From : Emerging → To : Emerging
3.37</title></g><g stroke="rgb(237, 248, 251)" style="mix-blend-mode: multiply;"><path d="M15,353.84499999999986C487.5,353.84499999999986,487.5,699.6550000000001,960,699.6550000000001" stroke-width="5.873999999999999"/><title>From : Emerging → To : Entering
0.89</title></g><g stroke="rgb(102, 194, 164)" style="mix-blend-mode: multiply;"><path d="M15,317.7759999999998C487.5,317.7759999999998,487.5,450.6340000000003,960,450.6340000000003" stroke-width="19.535999999999998"/><title>From : Emerging → To : Expanding
2.96</title></g><g stroke="rgb(0, 109, 44)" style="mix-blend-mode: multiply;"><path d="M15,328.1049999999998C487.5,328.1049999999998,487.5,568.9730000000003,960,568.9730000000003" stroke-width="1.1219999999999999"/><title>From : Emerging → To : Reaching
0.17</title></g><g stroke="rgb(44, 162, 95)" style="mix-blend-mode: multiply;"><path d="M15,368.7949999999999C487.5,368.7949999999999,487.5,60.07700000000041,960,60.07700000000041" stroke-width="4.025999999999999"/><title>From : Entering → To : Bridging
0.61</title></g><g stroke="rgb(153, 216, 201)" style="mix-blend-mode: multiply;"><path d="M15,390.14599999999996C487.5,390.14599999999996,487.5,290.8140000000005,960,290.8140000000005" stroke-width="38.675999999999995"/><title>From : Entering → To : Developing
5.86</title></g><g stroke="rgb(204, 236, 230)" style="mix-blend-mode: multiply;"><path d="M15,444.0679999999999C487.5,444.0679999999999,487.5,662.2320000000002,960,662.2320000000002" stroke-width="42.239999999999995"/><title>From : Entering → To : Emerging
6.4</title></g><g stroke="rgb(237, 248, 251)" style="mix-blend-mode: multiply;"><path d="M15,471.16099999999994C487.5,471.16099999999994,487.5,708.565,960,708.565" stroke-width="11.945999999999998"/><title>From : Entering → To : Entering
1.81</title></g><g stroke="rgb(102, 194, 164)" style="mix-blend-mode: multiply;"><path d="M15,416.1169999999999C487.5,416.1169999999999,487.5,467.0350000000003,960,467.0350000000003" stroke-width="13.265999999999996"/><title>From : Entering → To : Expanding
2.01</title></g><g stroke="rgb(0, 109, 44)" style="mix-blend-mode: multiply;"><path d="M15,422.84899999999993C487.5,422.84899999999993,487.5,569.6330000000003,960,569.6330000000003" stroke-width="1"/><title>From : Entering → To : Reaching
0.03</title></g><g stroke="rgb(44, 162, 95)" style="mix-blend-mode: multiply;"><path d="M15,530.9579999999996C487.5,530.9579999999996,487.5,105.9140000000004,960,105.9140000000004" stroke-width="87.64799999999998"/><title>From : Expanding → To : Bridging
13.28</title></g><g stroke="rgb(153, 216, 201)" style="mix-blend-mode: multiply;"><path d="M15,587.9489999999997C487.5,587.9489999999997,487.5,323.3190000000004,960,323.3190000000004" stroke-width="26.333999999999996"/><title>From : Expanding → To : Developing
3.99</title></g><g stroke="rgb(204, 236, 230)" style="mix-blend-mode: multiply;"><path d="M15,702.3929999999996C487.5,702.3929999999996,487.5,684.5730000000002,960,684.5730000000002" stroke-width="2.4419999999999997"/><title>From : Expanding → To : Emerging
0.37</title></g><g stroke="rgb(237, 248, 251)" style="mix-blend-mode: multiply;"><path d="M15,703.8449999999996C487.5,703.8449999999996,487.5,714.7690000000001,960,714.7690000000001" stroke-width="1"/><title>From : Expanding → To : Entering
0.07</title></g><g stroke="rgb(102, 194, 164)" style="mix-blend-mode: multiply;"><path d="M15,638.2079999999996C487.5,638.2079999999996,487.5,510.76000000000033,960,510.76000000000033" stroke-width="74.18399999999998"/><title>From : Expanding → To : Expanding
11.24</title></g><g stroke="rgb(0, 109, 44)" style="mix-blend-mode: multiply;"><path d="M15,688.2359999999996C487.5,688.2359999999996,487.5,582.6680000000002,960,582.6680000000002" stroke-width="25.871999999999996"/><title>From : Expanding → To : Reaching
3.92</title></g><g stroke="rgb(0, 109, 44)" style="mix-blend-mode: multiply;"><path d="M15,714.538C487.5,714.538,487.5,596.0660000000001,960,596.0660000000001" stroke-width="1"/><title>From : Reaching → To : Reaching
0.14</title></g></g><g style="font: 10px sans-serif;"><text x="21" y="9.817999999999756" dy="0.35em" text-anchor="start">From : Bridging<tspan fill-opacity="0.7"> 1.46</tspan></text><text x="954" y="77.36900000000047" dy="0.35em" text-anchor="end">To : Bridging<tspan fill-opacity="0.7"> 21.93</tspan></text><text x="954" y="248.11200000000042" dy="0.35em" text-anchor="end">To : Developing<tspan fill-opacity="0.7"> 26.78</tspan></text><text x="954" y="447.1690000000003" dy="0.35em" text-anchor="end">To : Expanding<tspan fill-opacity="0.7"> 30.51</tspan></text><text x="954" y="577.1900000000003" dy="0.35em" text-anchor="end">To : Reaching<tspan fill-opacity="0.7"> 5.86</tspan></text><text x="21" y="139.60799999999978" dy="0.35em" text-anchor="start">From : Developing<tspan fill-opacity="0.7"> 34.84</tspan></text><text x="954" y="646.1610000000002" dy="0.35em" text-anchor="end">To : Emerging<tspan fill-opacity="0.7"> 12.01</tspan></text><text x="954" y="705.397" dy="0.35em" text-anchor="end">To : Entering<tspan fill-opacity="0.7"> 2.91</tspan></text><text x="21" y="310.68099999999987" dy="0.35em" text-anchor="start">From : Emerging<tspan fill-opacity="0.7"> 13.97</tspan></text><text x="21" y="421.9579999999998" dy="0.35em" text-anchor="start">From : Entering<tspan fill-opacity="0.7"> 16.72</tspan></text><text x="21" y="595.6049999999998" dy="0.35em" text-anchor="start">From : Expanding<tspan fill-opacity="0.7"> 32.87</tspan></text><text x="21" y="714.538" dy="0.35em" text-anchor="start">From : Reaching<tspan fill-opacity="0.7"> 0.14</tspan></text></g></svg>