<svg viewBox="0,0,975,720" width="975" height="720" style="background: rgb(255, 255, 255); width: 100%; height: auto;" xmlns="http://www.w3.org/2000/svg" xmlns:xlink="http://www.w3.org/1999/xlink"><g><rect x="1" y="4.999999999999488" height="12.146429285857153" width="13" fill="rgb(185, 185, 185)"><title>From : Bridging
1.84</title></rect><rect x="961" y="4.999999999999773" height="18.813762752550588" width="13" fill="rgb(37, 136, 79)"><title>To : Bridging
2.85</title></rect><rect x="961" y="33.81376275255036" height="296.92738547709564" width="13" fill="rgb(128, 181, 168)"><title>To : Developing
44.98</title></rect><rect x="961" y="340.741148229646" height="143.31466293258666" width="13" fill="rgb(85, 162, 137)"><title>To : Expanding
21.71</title></rect><rect x="961" y="494.05581116223266" height="2.640528105621115" width="13" fill="rgb(0, 91, 37)"><title>To : Reaching
0.4</title></rect><rect x="1" y="27.14642928585664" height="200.61412282456496" width="13" fill="rgb(185, 185, 185)"><title>From : Developing
30.39</title></rect><rect x="961" y="506.6963392678538" height="150.6421284256853" width="13" fill="rgb(171, 197, 192)"><title>To : Emerging
22.82</title></rect><rect x="961" y="667.3384676935391" height="47.66153230646091" width="13" fill="rgb(198, 207, 210)"><title>To : Entering
7.22</title></rect><rect x="1" y="237.7605521104216" height="112.61852370474082" width="13" fill="rgb(185, 185, 185)"><title>From : Emerging
17.06</title></rect><rect x="1" y="360.3790758151624" height="116.71134226845402" width="13" fill="rgb(185, 185, 185)"><title>From : Entering
17.68</title></rect><rect x="1" y="487.09041808361644" height="217.24944988997822" width="13" fill="rgb(185, 185, 185)"><title>From : Expanding
32.91</title></rect><rect x="1" y="714.3398679735947" height="0.6601320264053356" width="13" fill="rgb(185, 185, 185)"><title>From : Reaching
0.1</title></rect></g><g fill="none"><g stroke="rgb(44, 162, 95)" style="mix-blend-mode: multiply;"><path d="M15,6.914382876574803C487.5,6.914382876574803,487.5,6.914382876575087,960,6.914382876575087" stroke-width="3.828765753150629"/><title>From : Bridging → To : Bridging
0.58</title></g><g stroke="rgb(153, 216, 201)" style="mix-blend-mode: multiply;"><path d="M15,9.620924184836454C487.5,9.620924184836454,487.5,34.6059211842367,960,34.6059211842367" stroke-width="1.584316863372674"/><title>From : Bridging → To : Developing
0.24</title></g><g stroke="rgb(102, 194, 164)" style="mix-blend-mode: multiply;"><path d="M15,12.888577715542596C487.5,12.888577715542596,487.5,343.2166433286658,960,343.2166433286658" stroke-width="4.950990198039607"/><title>From : Bridging → To : Expanding
0.75</title></g><g stroke="rgb(0, 109, 44)" style="mix-blend-mode: multiply;"><path d="M15,16.255251050209527C487.5,16.255251050209527,487.5,494.9469893978798,960,494.9469893978798" stroke-width="1.7823564712942586"/><title>From : Bridging → To : Reaching
0.27</title></g><g stroke="rgb(44, 162, 95)" style="mix-blend-mode: multiply;"><path d="M15,28.631726345268522C487.5,28.631726345268522,487.5,10.314062812562284,960,10.314062812562284" stroke-width="2.9705941188237643"/><title>From : Developing → To : Bridging
0.45</title></g><g stroke="rgb(153, 216, 201)" style="mix-blend-mode: multiply;"><path d="M15,89.03380676135173C487.5,89.03380676135173,487.5,94.31486297259437,960,94.31486297259437" stroke-width="117.83356671334265"/><title>From : Developing → To : Developing
17.85</title></g><g stroke="rgb(204, 236, 230)" style="mix-blend-mode: multiply;"><path d="M15,203.76475295058955C487.5,203.76475295058955,487.5,528.6457291458294,960,528.6457291458294" stroke-width="43.89877975595118"/><title>From : Developing → To : Emerging
6.65</title></g><g stroke="rgb(237, 248, 251)" style="mix-blend-mode: multiply;"><path d="M15,226.73734746949333C487.5,226.73734746949333,487.5,668.3616723344672,960,668.3616723344672" stroke-width="2.046409281856371"/><title>From : Developing → To : Entering
0.31</title></g><g stroke="rgb(102, 194, 164)" style="mix-blend-mode: multiply;"><path d="M15,164.78395679135772C487.5,164.78395679135772,487.5,362.52550510102026,960,362.52550510102026" stroke-width="33.666733346669325"/><title>From : Developing → To : Expanding
5.1</title></g><g stroke="rgb(0, 109, 44)" style="mix-blend-mode: multiply;"><path d="M15,181.7163432686532C487.5,181.7163432686532,487.5,495.9371874374877,960,495.9371874374877" stroke-width="1"/><title>From : Developing → To : Reaching
0.03</title></g><g stroke="rgb(44, 162, 95)" style="mix-blend-mode: multiply;"><path d="M15,237.8595719143824C487.5,237.8595719143824,487.5,11.898379675934956,960,11.898379675934956" stroke-width="1"/><title>From : Emerging → To : Bridging
0.03</title></g><g stroke="rgb(153, 216, 201)" style="mix-blend-mode: multiply;"><path d="M15,259.6769353870769C487.5,259.6769353870769,487.5,174.94998999799944,960,174.94998999799944" stroke-width="43.43668733746748"/><title>From : Emerging → To : Developing
6.58</title></g><g stroke="rgb(204, 236, 230)" style="mix-blend-mode: multiply;"><path d="M15,311.72834566913326C487.5,311.72834566913326,487.5,573.6667333466695,960,573.6667333466695" stroke-width="46.14322864572914"/><title>From : Emerging → To : Emerging
6.99</title></g><g stroke="rgb(237, 248, 251)" style="mix-blend-mode: multiply;"><path d="M15,342.5895179035802C487.5,342.5895179035802,487.5,677.1744348869778,960,677.1744348869778" stroke-width="15.57911582316463"/><title>From : Emerging → To : Entering
2.36</title></g><g stroke="rgb(102, 194, 164)" style="mix-blend-mode: multiply;"><path d="M15,285.0260052010397C487.5,285.0260052010397,487.5,382.989597919584,960,382.989597919584" stroke-width="7.261452290458091"/><title>From : Emerging → To : Expanding
1.1</title></g><g stroke="rgb(44, 162, 95)" style="mix-blend-mode: multiply;"><path d="M15,360.8411682336461C487.5,360.8411682336461,487.5,12.459491898379445,960,12.459491898379445" stroke-width="1"/><title>From : Entering → To : Bridging
0.14</title></g><g stroke="rgb(153, 216, 201)" style="mix-blend-mode: multiply;"><path d="M15,381.30526105220986C487.5,381.30526105220986,487.5,216.67033406681318,960,216.67033406681318" stroke-width="40.00400080016002"/><title>From : Entering → To : Developing
6.06</title></g><g stroke="rgb(204, 236, 230)" style="mix-blend-mode: multiply;"><path d="M15,425.53410682136365C487.5,425.53410682136365,487.5,618.4566913382678,960,618.4566913382678" stroke-width="43.43668733746748"/><title>From : Entering → To : Emerging
6.58</title></g><g stroke="rgb(237, 248, 251)" style="mix-blend-mode: multiply;"><path d="M15,462.17143428685677C487.5,462.17143428685677,487.5,699.8829765953195,960,699.8829765953195" stroke-width="29.837967593518695"/><title>From : Entering → To : Entering
4.52</title></g><g stroke="rgb(102, 194, 164)" style="mix-blend-mode: multiply;"><path d="M15,402.5615123024599C487.5,402.5615123024599,487.5,387.87457491498304,960,387.87457491498304" stroke-width="2.5085017003400676"/><title>From : Entering → To : Expanding
0.38</title></g><g stroke="rgb(44, 162, 95)" style="mix-blend-mode: multiply;"><path d="M15,492.30546109221814C487.5,492.30546109221814,487.5,18.136627325464865,960,18.136627325464865" stroke-width="10.43008601720344"/><title>From : Expanding → To : Bridging
1.58</title></g><g stroke="rgb(153, 216, 201)" style="mix-blend-mode: multiply;"><path d="M15,544.5549109821961C487.5,544.5549109821961,487.5,283.7067413482694,960,283.7067413482694" stroke-width="94.06881376275253"/><title>From : Expanding → To : Developing
14.25</title></g><g stroke="rgb(204, 236, 230)" style="mix-blend-mode: multiply;"><path d="M15,695.5601120224043C487.5,695.5601120224043,487.5,648.7567513502702,960,648.7567513502702" stroke-width="17.163432686537305"/><title>From : Expanding → To : Emerging
2.6</title></g><g stroke="rgb(237, 248, 251)" style="mix-blend-mode: multiply;"><path d="M15,704.2408481696336C487.5,704.2408481696336,487.5,714.9009801960397,960,714.9009801960397" stroke-width="1"/><title>From : Expanding → To : Entering
0.03</title></g><g stroke="rgb(102, 194, 164)" style="mix-blend-mode: multiply;"><path d="M15,638.9537907581513C487.5,638.9537907581513,487.5,436.493298659732,960,436.493298659732" stroke-width="94.7289457891578"/><title>From : Expanding → To : Expanding
14.35</title></g><g stroke="rgb(0, 109, 44)" style="mix-blend-mode: multiply;"><path d="M15,686.6483296659329C487.5,686.6483296659329,487.5,496.36627325465116,960,496.36627325465116" stroke-width="1"/><title>From : Expanding → To : Reaching
0.1</title></g><g stroke="rgb(44, 162, 95)" style="mix-blend-mode: multiply;"><path d="M15,714.5709141828365C487.5,714.5709141828365,487.5,23.582716543308432,960,23.582716543308432" stroke-width="1"/><title>From : Reaching → To : Bridging
0.07</title></g><g stroke="rgb(102, 194, 164)" style="mix-blend-mode: multiply;"><path d="M15,714.9009801960392C487.5,714.9009801960392,487.5,483.9567913582717,960,483.9567913582717" stroke-width="1"/><title>From : Reaching → To : Expanding
0.03</title></g></g><g style="font: 10px sans-serif;"><text x="21" y="11.073214642928065" dy="0.35em" text-anchor="start">From : Bridging<tspan fill-opacity="0.7"> 1.84</tspan></text><text x="954" y="14.406881376275066" dy="0.35em" text-anchor="end">To : Bridging<tspan fill-opacity="0.7"> 2.85</tspan></text><text x="954" y="182.27745549109818" dy="0.35em" text-anchor="end">To : Developing<tspan fill-opacity="0.7"> 44.98</tspan></text><text x="954" y="412.39847969593933" dy="0.35em" text-anchor="end">To : Expanding<tspan fill-opacity="0.7"> 21.71</tspan></text><text x="954" y="495.3760752150432" dy="0.35em" text-anchor="end">To : Reaching<tspan fill-opacity="0.7"> 0.4</tspan></text><text x="21" y="127.45349069813912" dy="0.35em" text-anchor="start">From : Developing<tspan fill-opacity="0.7"> 30.39</tspan></text><text x="954" y="582.0174034806964" dy="0.35em" text-anchor="end">To : Emerging<tspan fill-opacity="0.7"> 22.82</tspan></text><text x="954" y="691.1692338467695" dy="0.35em" text-anchor="end">To : Entering<tspan fill-opacity="0.7"> 7.22</tspan></text><text x="21" y="294.069813962792" dy="0.35em" text-anchor="start">From : Emerging<tspan fill-opacity="0.7"> 17.06</tspan></text><text x="21" y="418.73474694938943" dy="0.35em" text-anchor="start">From : Entering<tspan fill-opacity="0.7"> 17.68</tspan></text><text x="21" y="595.7151430286056" dy="0.35em" text-anchor="start">From : Expanding<tspan fill-opacity="0.7"> 32.91</tspan></text><text x="21" y="714.6699339867973" dy="0.35em" text-anchor="start">From : Reaching<tspan fill-opacity="0.7"> 0.1</tspan></text></g></svg>